<svg id="visual" viewBox="0 0 900 600" width="900" height="600" xmlns="http://www.w3.org/2000/svg" xmlns:xlink="http://www.w3.org/1999/xlink" version="1.1"><path d="M0 430L21.5 419.3C43 408.7 86 387.3 128.8 378C171.7 368.7 214.3 371.3 257.2 380.7C300 390 343 406 385.8 410.3C428.7 414.7 471.3 407.3 514.2 398.8C557 390.3 600 380.7 642.8 378C685.7 375.3 728.3 379.7 771.2 378C814 376.3 857 368.7 878.5 364.8L900 361L900 601L878.5 601C857 601 814 601 771.2 601C728.3 601 685.7 601 642.8 601C600 601 557 601 514.2 601C471.3 601 428.7 601 385.8 601C343 601 300 601 257.2 601C214.3 601 171.7 601 128.8 601C86 601 43 601 21.5 601L0 601Z" fill="#fa7268"></path><path d="M0 462L21.5 458.2C43 454.3 86 446.7 128.8 446.3C171.7 446 214.3 453 257.2 449.8C300 446.7 343 433.3 385.8 433.8C428.7 434.3 471.3 448.7 514.2 449.7C557 450.7 600 438.3 642.8 437.5C685.7 436.7 728.3 447.3 771.2 442.8C814 438.3 857 418.7 878.5 408.8L900 399L900 601L878.5 601C857 601 814 601 771.2 601C728.3 601 685.7 601 642.8 601C600 601 557 601 514.2 601C471.3 601 428.7 601 385.8 601C343 601 300 601 257.2 601C214.3 601 171.7 601 128.8 601C86 601 43 601 21.5 601L0 601Z" fill="#ef5f67"></path><path d="M0 458L21.5 463.5C43 469 86 480 128.8 477.3C171.7 474.7 214.3 458.3 257.2 451.8C300 445.3 343 448.7 385.8 455.7C428.7 462.7 471.3 473.3 514.2 471.2C557 469 600 454 642.8 455.2C685.7 456.3 728.3 473.7 771.2 476.2C814 478.7 857 466.3 878.5 460.2L900 454L900 601L878.5 601C857 601 814 601 771.2 601C728.3 601 685.7 601 642.8 601C600 601 557 601 514.2 601C471.3 601 428.7 601 385.8 601C343 601 300 601 257.2 601C214.3 601 171.7 601 128.8 601C86 601 43 601 21.5 601L0 601Z" fill="#e34c67"></path><path d="M0 529L21.5 531.2C43 533.3 86 537.7 128.8 529.7C171.7 521.7 214.3 501.3 257.2 493.7C300 486 343 491 385.8 492.5C428.7 494 471.3 492 514.2 489.5C557 487 600 484 642.8 490.7C685.7 497.3 728.3 513.7 771.2 519.2C814 524.7 857 519.3 878.5 516.7L900 514L900 601L878.5 601C857 601 814 601 771.2 601C728.3 601 685.7 601 642.8 601C600 601 557 601 514.2 601C471.3 601 428.7 601 385.8 601C343 601 300 601 257.2 601C214.3 601 171.7 601 128.8 601C86 601 43 601 21.5 601L0 601Z" fill="#d53867"></path><path d="M0 541L21.5 545.8C43 550.7 86 560.3 128.8 565C171.7 569.7 214.3 569.3 257.2 567.8C300 566.3 343 563.7 385.8 559.8C428.7 556 471.3 551 514.2 549.7C557 548.3 600 550.7 642.8 549C685.7 547.3 728.3 541.7 771.2 540.7C814 539.7 857 543.3 878.5 545.2L900 547L900 601L878.5 601C857 601 814 601 771.2 601C728.3 601 685.7 601 642.8 601C600 601 557 601 514.2 601C471.3 601 428.7 601 385.8 601C343 601 300 601 257.2 601C214.3 601 171.7 601 128.8 601C86 601 43 601 21.5 601L0 601Z" fill="#c62368"></path></svg>